# xmcd
#
# Track frame offsets:
#	150
#	13942
#	28601
#	41778
#	55738
#	76028
#	88894
#	106723
#	124912
#	144071
#	158366
#	177261
#
# Disc length: 2706 seconds
#
# Revision: 0
# Processed by: cddbd v1.5.2PL0 Copyright (c) Steve Scherf et al.
# Submitted via: audiograbber 1.83.01
#
DISCID=890a900c
DTITLE=Sixty-Nine Million Inches - Wet your whistle
DYEAR=2006
DGENRE=Country
TTITLE0=Sparkling grace
TTITLE1=The story of the man with two brides
TTITLE2=Waiting for cherry blossoms
TTITLE3=Also Known as
TTITLE4=New Things (Trip is in your mind)
TTITLE5=Malpaso
TTITLE6=Hazard warning lights
TTITLE7=Summertime
TTITLE8=Whiskey nights
TTITLE9=Night prayer
TTITLE10=Two rocking chairs
TTITLE11=50 cents woman
EXTD=
EXTT0=
EXTT1=
EXTT2=
EXTT3=
EXTT4=
EXTT5=
EXTT6=
EXTT7=
EXTT8=
EXTT9=
EXTT10=
EXTT11=
PLAYORDER=
